<?xml version="1.0" standalone="no"?>
<svg xmlns:xlink="http://www.w3.org/1999/xlink" id="wave" style="transform:rotate(0deg); transition: 0.3s" viewBox="0 0 1440 390" version="1.1" xmlns="http://www.w3.org/2000/svg"><defs><linearGradient id="sw-gradient-0" x1="0" x2="0" y1="1" y2="0"><stop stop-color="rgba(20, 108, 148, 1)" offset="0%"/><stop stop-color="rgba(205, 230, 252, 1)" offset="100%"/></linearGradient></defs><path style="transform:translate(0, 0px); opacity:1" fill="url(#sw-gradient-0)" d="M0,312L80,312C160,312,320,312,480,292.5C640,273,800,234,960,234C1120,234,1280,273,1440,247C1600,221,1760,130,1920,84.5C2080,39,2240,39,2400,39C2560,39,2720,39,2880,58.5C3040,78,3200,117,3360,117C3520,117,3680,78,3840,91C4000,104,4160,169,4320,169C4480,169,4640,104,4800,117C4960,130,5120,221,5280,260C5440,299,5600,286,5760,292.5C5920,299,6080,325,6240,299C6400,273,6560,195,6720,143C6880,91,7040,65,7200,91C7360,117,7520,195,7680,221C7840,247,8000,221,8160,195C8320,169,8480,143,8640,136.5C8800,130,8960,143,9120,175.5C9280,208,9440,260,9600,286C9760,312,9920,312,10080,279.5C10240,247,10400,182,10560,143C10720,104,10880,91,11040,84.5C11200,78,11360,78,11440,78L11520,78L11520,390L11440,390C11360,390,11200,390,11040,390C10880,390,10720,390,10560,390C10400,390,10240,390,10080,390C9920,390,9760,390,9600,390C9440,390,9280,390,9120,390C8960,390,8800,390,8640,390C8480,390,8320,390,8160,390C8000,390,7840,390,7680,390C7520,390,7360,390,7200,390C7040,390,6880,390,6720,390C6560,390,6400,390,6240,390C6080,390,5920,390,5760,390C5600,390,5440,390,5280,390C5120,390,4960,390,4800,390C4640,390,4480,390,4320,390C4160,390,4000,390,3840,390C3680,390,3520,390,3360,390C3200,390,3040,390,2880,390C2720,390,2560,390,2400,390C2240,390,2080,390,1920,390C1760,390,1600,390,1440,390C1280,390,1120,390,960,390C800,390,640,390,480,390C320,390,160,390,80,390L0,390Z"/><defs><linearGradient id="sw-gradient-1" x1="0" x2="0" y1="1" y2="0"><stop stop-color="rgba(20, 108, 148, 1)" offset="0%"/><stop stop-color="rgba(205, 230, 252, 1)" offset="100%"/></linearGradient></defs><path style="transform:translate(0, 50px); opacity:0.9" fill="url(#sw-gradient-1)" d="M0,39L80,65C160,91,320,143,480,182C640,221,800,247,960,260C1120,273,1280,273,1440,279.5C1600,286,1760,299,1920,279.5C2080,260,2240,208,2400,214.5C2560,221,2720,286,2880,299C3040,312,3200,273,3360,253.5C3520,234,3680,234,3840,214.5C4000,195,4160,156,4320,130C4480,104,4640,91,4800,123.5C4960,156,5120,234,5280,234C5440,234,5600,156,5760,162.5C5920,169,6080,260,6240,292.5C6400,325,6560,299,6720,253.5C6880,208,7040,143,7200,104C7360,65,7520,52,7680,84.5C7840,117,8000,195,8160,201.5C8320,208,8480,143,8640,149.5C8800,156,8960,234,9120,266.5C9280,299,9440,286,9600,273C9760,260,9920,247,10080,221C10240,195,10400,156,10560,117C10720,78,10880,39,11040,58.5C11200,78,11360,156,11440,195L11520,234L11520,390L11440,390C11360,390,11200,390,11040,390C10880,390,10720,390,10560,390C10400,390,10240,390,10080,390C9920,390,9760,390,9600,390C9440,390,9280,390,9120,390C8960,390,8800,390,8640,390C8480,390,8320,390,8160,390C8000,390,7840,390,7680,390C7520,390,7360,390,7200,390C7040,390,6880,390,6720,390C6560,390,6400,390,6240,390C6080,390,5920,390,5760,390C5600,390,5440,390,5280,390C5120,390,4960,390,4800,390C4640,390,4480,390,4320,390C4160,390,4000,390,3840,390C3680,390,3520,390,3360,390C3200,390,3040,390,2880,390C2720,390,2560,390,2400,390C2240,390,2080,390,1920,390C1760,390,1600,390,1440,390C1280,390,1120,390,960,390C800,390,640,390,480,390C320,390,160,390,80,390L0,390Z"/><defs><linearGradient id="sw-gradient-2" x1="0" x2="0" y1="1" y2="0"><stop stop-color="rgba(20, 108, 148, 1)" offset="0%"/><stop stop-color="rgba(205, 230, 252, 1)" offset="100%"/></linearGradient></defs><path style="transform:translate(0, 100px); opacity:0.8" fill="url(#sw-gradient-2)" d="M0,156L80,156C160,156,320,156,480,188.5C640,221,800,286,960,318.5C1120,351,1280,351,1440,325C1600,299,1760,247,1920,221C2080,195,2240,195,2400,169C2560,143,2720,91,2880,71.5C3040,52,3200,65,3360,117C3520,169,3680,260,3840,286C4000,312,4160,273,4320,227.5C4480,182,4640,130,4800,91C4960,52,5120,26,5280,26C5440,26,5600,52,5760,71.5C5920,91,6080,104,6240,117C6400,130,6560,143,6720,156C6880,169,7040,182,7200,201.5C7360,221,7520,247,7680,247C7840,247,8000,221,8160,234C8320,247,8480,299,8640,279.5C8800,260,8960,169,9120,143C9280,117,9440,156,9600,182C9760,208,9920,221,10080,240.5C10240,260,10400,286,10560,247C10720,208,10880,104,11040,58.5C11200,13,11360,26,11440,32.5L11520,39L11520,390L11440,390C11360,390,11200,390,11040,390C10880,390,10720,390,10560,390C10400,390,10240,390,10080,390C9920,390,9760,390,9600,390C9440,390,9280,390,9120,390C8960,390,8800,390,8640,390C8480,390,8320,390,8160,390C8000,390,7840,390,7680,390C7520,390,7360,390,7200,390C7040,390,6880,390,6720,390C6560,390,6400,390,6240,390C6080,390,5920,390,5760,390C5600,390,5440,390,5280,390C5120,390,4960,390,4800,390C4640,390,4480,390,4320,390C4160,390,4000,390,3840,390C3680,390,3520,390,3360,390C3200,390,3040,390,2880,390C2720,390,2560,390,2400,390C2240,390,2080,390,1920,390C1760,390,1600,390,1440,390C1280,390,1120,390,960,390C800,390,640,390,480,390C320,390,160,390,80,390L0,390Z"/></svg>