<?xml version="1.0" standalone="no"?>
<svg xmlns:xlink="http://www.w3.org/1999/xlink" id="wave" style="transform:rotate(0deg); transition: 0.3s" viewBox="0 0 1440 390" version="1.1" xmlns="http://www.w3.org/2000/svg"><defs><linearGradient id="sw-gradient-0" x1="0" x2="0" y1="1" y2="0"><stop stop-color="rgba(20, 108, 148, 1)" offset="0%"/><stop stop-color="rgba(205, 230, 252, 1)" offset="100%"/></linearGradient></defs><path style="transform:translate(0, 0px); opacity:1" fill="url(#sw-gradient-0)" d="M0,0L60,52C120,104,240,208,360,247C480,286,600,260,720,214.5C840,169,960,104,1080,110.5C1200,117,1320,195,1440,214.5C1560,234,1680,195,1800,162.5C1920,130,2040,104,2160,97.5C2280,91,2400,104,2520,104C2640,104,2760,91,2880,91C3000,91,3120,104,3240,130C3360,156,3480,195,3600,201.5C3720,208,3840,182,3960,143C4080,104,4200,52,4320,84.5C4440,117,4560,234,4680,292.5C4800,351,4920,351,5040,344.5C5160,338,5280,325,5400,318.5C5520,312,5640,312,5760,312C5880,312,6000,312,6120,286C6240,260,6360,208,6480,169C6600,130,6720,104,6840,117C6960,130,7080,182,7200,214.5C7320,247,7440,260,7560,260C7680,260,7800,247,7920,221C8040,195,8160,156,8280,143C8400,130,8520,143,8580,149.5L8640,156L8640,390L8580,390C8520,390,8400,390,8280,390C8160,390,8040,390,7920,390C7800,390,7680,390,7560,390C7440,390,7320,390,7200,390C7080,390,6960,390,6840,390C6720,390,6600,390,6480,390C6360,390,6240,390,6120,390C6000,390,5880,390,5760,390C5640,390,5520,390,5400,390C5280,390,5160,390,5040,390C4920,390,4800,390,4680,390C4560,390,4440,390,4320,390C4200,390,4080,390,3960,390C3840,390,3720,390,3600,390C3480,390,3360,390,3240,390C3120,390,3000,390,2880,390C2760,390,2640,390,2520,390C2400,390,2280,390,2160,390C2040,390,1920,390,1800,390C1680,390,1560,390,1440,390C1320,390,1200,390,1080,390C960,390,840,390,720,390C600,390,480,390,360,390C240,390,120,390,60,390L0,390Z"/><defs><linearGradient id="sw-gradient-1" x1="0" x2="0" y1="1" y2="0"><stop stop-color="rgba(20, 108, 148, 1)" offset="0%"/><stop stop-color="rgba(205, 230, 252, 1)" offset="100%"/></linearGradient></defs><path style="transform:translate(0, 50px); opacity:0.9" fill="url(#sw-gradient-1)" d="M0,312L60,299C120,286,240,260,360,227.5C480,195,600,156,720,136.5C840,117,960,117,1080,149.5C1200,182,1320,247,1440,234C1560,221,1680,130,1800,78C1920,26,2040,13,2160,13C2280,13,2400,26,2520,26C2640,26,2760,13,2880,65C3000,117,3120,234,3240,279.5C3360,325,3480,299,3600,286C3720,273,3840,273,3960,227.5C4080,182,4200,91,4320,91C4440,91,4560,182,4680,240.5C4800,299,4920,325,5040,299C5160,273,5280,195,5400,162.5C5520,130,5640,143,5760,182C5880,221,6000,286,6120,286C6240,286,6360,221,6480,201.5C6600,182,6720,208,6840,182C6960,156,7080,78,7200,58.5C7320,39,7440,78,7560,123.5C7680,169,7800,221,7920,253.5C8040,286,8160,299,8280,286C8400,273,8520,234,8580,214.5L8640,195L8640,390L8580,390C8520,390,8400,390,8280,390C8160,390,8040,390,7920,390C7800,390,7680,390,7560,390C7440,390,7320,390,7200,390C7080,390,6960,390,6840,390C6720,390,6600,390,6480,390C6360,390,6240,390,6120,390C6000,390,5880,390,5760,390C5640,390,5520,390,5400,390C5280,390,5160,390,5040,390C4920,390,4800,390,4680,390C4560,390,4440,390,4320,390C4200,390,4080,390,3960,390C3840,390,3720,390,3600,390C3480,390,3360,390,3240,390C3120,390,3000,390,2880,390C2760,390,2640,390,2520,390C2400,390,2280,390,2160,390C2040,390,1920,390,1800,390C1680,390,1560,390,1440,390C1320,390,1200,390,1080,390C960,390,840,390,720,390C600,390,480,390,360,390C240,390,120,390,60,390L0,390Z"/><defs><linearGradient id="sw-gradient-2" x1="0" x2="0" y1="1" y2="0"><stop stop-color="rgba(20, 108, 148, 1)" offset="0%"/><stop stop-color="rgba(205, 230, 252, 1)" offset="100%"/></linearGradient></defs><path style="transform:translate(0, 100px); opacity:0.8" fill="url(#sw-gradient-2)" d="M0,78L60,104C120,130,240,182,360,201.5C480,221,600,208,720,201.5C840,195,960,195,1080,195C1200,195,1320,195,1440,182C1560,169,1680,143,1800,117C1920,91,2040,65,2160,52C2280,39,2400,39,2520,71.5C2640,104,2760,169,2880,182C3000,195,3120,156,3240,123.5C3360,91,3480,65,3600,104C3720,143,3840,247,3960,292.5C4080,338,4200,325,4320,266.5C4440,208,4560,104,4680,58.5C4800,13,4920,26,5040,84.5C5160,143,5280,247,5400,266.5C5520,286,5640,221,5760,195C5880,169,6000,182,6120,214.5C6240,247,6360,299,6480,305.5C6600,312,6720,273,6840,214.5C6960,156,7080,78,7200,58.5C7320,39,7440,78,7560,84.5C7680,91,7800,65,7920,78C8040,91,8160,143,8280,195C8400,247,8520,299,8580,325L8640,351L8640,390L8580,390C8520,390,8400,390,8280,390C8160,390,8040,390,7920,390C7800,390,7680,390,7560,390C7440,390,7320,390,7200,390C7080,390,6960,390,6840,390C6720,390,6600,390,6480,390C6360,390,6240,390,6120,390C6000,390,5880,390,5760,390C5640,390,5520,390,5400,390C5280,390,5160,390,5040,390C4920,390,4800,390,4680,390C4560,390,4440,390,4320,390C4200,390,4080,390,3960,390C3840,390,3720,390,3600,390C3480,390,3360,390,3240,390C3120,390,3000,390,2880,390C2760,390,2640,390,2520,390C2400,390,2280,390,2160,390C2040,390,1920,390,1800,390C1680,390,1560,390,1440,390C1320,390,1200,390,1080,390C960,390,840,390,720,390C600,390,480,390,360,390C240,390,120,390,60,390L0,390Z"/></svg>