<?xml version="1.0" standalone="no"?>
<svg xmlns:xlink="http://www.w3.org/1999/xlink" id="wave" style="transform:rotate(0deg); transition: 0.3s" viewBox="0 0 1440 390" version="1.1" xmlns="http://www.w3.org/2000/svg"><defs><linearGradient id="sw-gradient-0" x1="0" x2="0" y1="1" y2="0"><stop stop-color="rgba(20, 108, 148, 1)" offset="0%"/><stop stop-color="rgba(205, 230, 252, 1)" offset="100%"/></linearGradient></defs><path style="transform:translate(0, 0px); opacity:1" fill="url(#sw-gradient-0)" d="M0,273L60,273C120,273,240,273,360,253.5C480,234,600,195,720,208C840,221,960,286,1080,312C1200,338,1320,325,1440,325C1560,325,1680,338,1800,344.5C1920,351,2040,351,2160,325C2280,299,2400,247,2520,227.5C2640,208,2760,221,2880,240.5C3000,260,3120,286,3240,299C3360,312,3480,312,3600,305.5C3720,299,3840,286,3960,266.5C4080,247,4200,221,4320,208C4440,195,4560,195,4680,175.5C4800,156,4920,117,5040,97.5C5160,78,5280,78,5400,78C5520,78,5640,78,5760,91C5880,104,6000,130,6120,156C6240,182,6360,208,6480,201.5C6600,195,6720,156,6840,117C6960,78,7080,39,7200,26C7320,13,7440,26,7560,32.5C7680,39,7800,39,7920,58.5C8040,78,8160,117,8280,110.5C8400,104,8520,52,8580,26L8640,0L8640,390L8580,390C8520,390,8400,390,8280,390C8160,390,8040,390,7920,390C7800,390,7680,390,7560,390C7440,390,7320,390,7200,390C7080,390,6960,390,6840,390C6720,390,6600,390,6480,390C6360,390,6240,390,6120,390C6000,390,5880,390,5760,390C5640,390,5520,390,5400,390C5280,390,5160,390,5040,390C4920,390,4800,390,4680,390C4560,390,4440,390,4320,390C4200,390,4080,390,3960,390C3840,390,3720,390,3600,390C3480,390,3360,390,3240,390C3120,390,3000,390,2880,390C2760,390,2640,390,2520,390C2400,390,2280,390,2160,390C2040,390,1920,390,1800,390C1680,390,1560,390,1440,390C1320,390,1200,390,1080,390C960,390,840,390,720,390C600,390,480,390,360,390C240,390,120,390,60,390L0,390Z"/><defs><linearGradient id="sw-gradient-1" x1="0" x2="0" y1="1" y2="0"><stop stop-color="rgba(20, 108, 148, 1)" offset="0%"/><stop stop-color="rgba(205, 230, 252, 1)" offset="100%"/></linearGradient></defs><path style="transform:translate(0, 50px); opacity:0.9" fill="url(#sw-gradient-1)" d="M0,78L60,91C120,104,240,130,360,149.5C480,169,600,182,720,156C840,130,960,65,1080,65C1200,65,1320,130,1440,175.5C1560,221,1680,247,1800,214.5C1920,182,2040,91,2160,71.5C2280,52,2400,104,2520,149.5C2640,195,2760,234,2880,221C3000,208,3120,143,3240,149.5C3360,156,3480,234,3600,253.5C3720,273,3840,234,3960,234C4080,234,4200,273,4320,266.5C4440,260,4560,208,4680,182C4800,156,4920,156,5040,143C5160,130,5280,104,5400,104C5520,104,5640,130,5760,117C5880,104,6000,52,6120,58.5C6240,65,6360,130,6480,169C6600,208,6720,221,6840,195C6960,169,7080,104,7200,65C7320,26,7440,13,7560,39C7680,65,7800,130,7920,182C8040,234,8160,273,8280,292.5C8400,312,8520,312,8580,312L8640,312L8640,390L8580,390C8520,390,8400,390,8280,390C8160,390,8040,390,7920,390C7800,390,7680,390,7560,390C7440,390,7320,390,7200,390C7080,390,6960,390,6840,390C6720,390,6600,390,6480,390C6360,390,6240,390,6120,390C6000,390,5880,390,5760,390C5640,390,5520,390,5400,390C5280,390,5160,390,5040,390C4920,390,4800,390,4680,390C4560,390,4440,390,4320,390C4200,390,4080,390,3960,390C3840,390,3720,390,3600,390C3480,390,3360,390,3240,390C3120,390,3000,390,2880,390C2760,390,2640,390,2520,390C2400,390,2280,390,2160,390C2040,390,1920,390,1800,390C1680,390,1560,390,1440,390C1320,390,1200,390,1080,390C960,390,840,390,720,390C600,390,480,390,360,390C240,390,120,390,60,390L0,390Z"/><defs><linearGradient id="sw-gradient-2" x1="0" x2="0" y1="1" y2="0"><stop stop-color="rgba(20, 108, 148, 1)" offset="0%"/><stop stop-color="rgba(205, 230, 252, 1)" offset="100%"/></linearGradient></defs><path style="transform:translate(0, 100px); opacity:0.8" fill="url(#sw-gradient-2)" d="M0,156L60,162.5C120,169,240,182,360,195C480,208,600,221,720,195C840,169,960,104,1080,104C1200,104,1320,169,1440,208C1560,247,1680,260,1800,221C1920,182,2040,91,2160,91C2280,91,2400,182,2520,188.5C2640,195,2760,117,2880,91C3000,65,3120,91,3240,97.5C3360,104,3480,91,3600,84.5C3720,78,3840,78,3960,84.5C4080,91,4200,104,4320,104C4440,104,4560,91,4680,71.5C4800,52,4920,26,5040,19.5C5160,13,5280,26,5400,39C5520,52,5640,65,5760,110.5C5880,156,6000,234,6120,221C6240,208,6360,104,6480,97.5C6600,91,6720,182,6840,182C6960,182,7080,91,7200,104C7320,117,7440,234,7560,266.5C7680,299,7800,247,7920,240.5C8040,234,8160,273,8280,299C8400,325,8520,338,8580,344.5L8640,351L8640,390L8580,390C8520,390,8400,390,8280,390C8160,390,8040,390,7920,390C7800,390,7680,390,7560,390C7440,390,7320,390,7200,390C7080,390,6960,390,6840,390C6720,390,6600,390,6480,390C6360,390,6240,390,6120,390C6000,390,5880,390,5760,390C5640,390,5520,390,5400,390C5280,390,5160,390,5040,390C4920,390,4800,390,4680,390C4560,390,4440,390,4320,390C4200,390,4080,390,3960,390C3840,390,3720,390,3600,390C3480,390,3360,390,3240,390C3120,390,3000,390,2880,390C2760,390,2640,390,2520,390C2400,390,2280,390,2160,390C2040,390,1920,390,1800,390C1680,390,1560,390,1440,390C1320,390,1200,390,1080,390C960,390,840,390,720,390C600,390,480,390,360,390C240,390,120,390,60,390L0,390Z"/></svg>